<?xml version="1.0" encoding="utf-8"?>
<!-- Generator: Adobe Illustrator 26.3.1, SVG Export Plug-In . SVG Version: 6.00 Build 0)  -->
<svg version="1.1" id="ëÎÓÈ_1" xmlns="http://www.w3.org/2000/svg" xmlns:xlink="http://www.w3.org/1999/xlink" x="0px" y="0px"
	 viewBox="0 0 1190.1 1190.1" style="enable-background:new 0 0 1190.1 1190.1;" xml:space="preserve">
<style type="text/css">
	.st0{fill:#ffffff4d;stroke:#AF8F3A;stroke-width:20;stroke-miterlimit:10;}
</style>
<g>
	<path class="st0" d="M273,17.4c0-9.7-7.2-17.1-16.7-17.1H64.9c-11.4,0-25.7,0-38.6,8C10.9,17.9,1.1,34.6,0.3,53
		c-0.1,1.9-0.1,3.8-0.1,5.6c0,0.7,0,1.4,0,2.1v102c0,10.2-0.1,20.6-0.1,30.6c-0.1,20.2-0.3,41,0.1,61.5c0,0.3,0,0.6,0,0.8v0.7
		c0,9.5,7.3,16.7,17.1,16.7c4.3,0,8.4-1.5,11.5-4.1c3.6-3.1,5.5-7.5,5.5-12.6V70.6c0-1.8,0-3.6-0.1-5.4c-0.2-8.6-0.2-14.5,2.1-19.3
		c3.5-7,10.5-11.3,18.6-11.4c0.8,0,1.7,0,2.5,0c0.4,0,1.5,0,2.6,0c1.1,0,2.2,0,2.7,0h103.2c9.8,0,19.9,0.1,29.5,0.2
		c9.7,0.1,19.7,0.2,29.7,0.2c11.1,0,20.9-0.1,29.8-0.3h0.2l1.2,0C265.9,34.5,273,27.1,273,17.4z"/>
	<path class="st0" d="M1172.7,273.1L1172.7,273.1c4.3,0,8.4-1.5,11.5-4.1c3.6-3.1,5.6-7.5,5.6-12.6v-190c0-13.3,0-27-8-39.9
		c-9.6-15.5-26.3-25.2-44.7-26c-1,0-2.1-0.1-3.3-0.1c-0.8,0-1.5,0-2.2,0h-0.3c-0.6,0-1.2,0-1.9,0h-102c-10,0-20.2-0.1-30.1-0.1h-0.5
		C986.7,0.1,976.3,0,966,0c-11.5,0-21.6,0.1-30.8,0.3h-0.1h-1.4c-9.5,0-16.7,7.3-16.7,17.1c0,9.7,7.2,17.1,16.7,17.1h185.7
		c1.8,0,3.7,0,5.5-0.1c1.9-0.1,3.8-0.1,5.6-0.1c6.4,0,10.4,0.7,13.6,2.2c7,3.5,11.3,10.4,11.4,18.6c0,1.6,0,3.3,0,4.9v0.3
		c0,0.9,0,1.8,0,2.7v103.2c0,9.9-0.1,19.9-0.2,29.5c-0.2,19.4-0.3,39.6,0.2,59.4v0.2l0,1.3C1155.6,265.9,1163,273.1,1172.7,273.1z"
		/>
	<path class="st0" d="M53,1189.8c1,0,2.1,0.1,3.3,0.1c0.7,0,1.3,0,2,0h0.5c0.6,0,1.2,0,1.9,0h102c10.2,0,20.6,0.1,30.6,0.1
		c10,0.1,20.4,0.1,30.7,0.1c11.5,0,21.6-0.1,30.8-0.3h0.3h1.3c9.5,0,16.7-7.3,16.7-17.1c0-9.7-7.2-17.1-16.7-17.1H70.6
		c-1.8,0-3.6,0.1-5.4,0.1h-0.1c-1.8,0.1-3.7,0.1-5.6,0.1c-6.4,0-10.4-0.7-13.6-2.2c-7-3.5-11.3-10.4-11.4-18.6c0-1.7,0-3.3,0-4.9
		v-0.4c0-0.8,0-1.6,0-2.4V1024c0-9.8,0.1-19.8,0.2-29.5c0.2-19.5,0.3-39.6-0.2-59.4V935l0-1.3c0-9.5-7.4-16.7-17.1-16.7
		c-9.7,0-17.1,7.2-17.1,16.7v190.1c0,13.3,0,27,8,39.9C17.9,1179.2,34.6,1189,53,1189.8z"/>
	<path class="st0" d="M1189.9,996.7v-0.1c0.1-20.1,0.3-40.9-0.1-61.3c0-0.3,0-0.6,0-0.9v-0.7c0-9.5-7.3-16.7-17.1-16.7
		c-9.7,0-17.1,7.2-17.1,16.7v185.8c0,1.8,0.1,3.6,0.1,5.4v0.1c0.2,8.5,0.2,14.4-2.1,19.2c-3.5,7-10.4,11.3-18.6,11.4
		c-0.8,0-1.7,0-2.5,0c-0.4,0-1.5,0-2.6,0c-1.1,0-2.2,0-2.7,0H1024c-9.9,0-19.9-0.1-29.5-0.2c-9.7-0.1-19.7-0.2-29.7-0.2
		c-11.1,0-20.8,0.1-29.8,0.3h-0.2l-1.2,0c-9.5,0-16.7,7.3-16.7,17.1c0,9.7,7.2,17.1,16.7,17.1h191.5c11.4,0,25.6,0,38.5-8
		c15.5-9.6,25.2-26.3,26-44.7c0.1-1.9,0.1-3.7,0.1-5.5c0-0.7,0-1.4,0-2.2v-102C1189.8,1017.1,1189.9,1006.7,1189.9,996.7z"/>
</g>
</svg>
