<?xml version="1.0" encoding="utf-8"?>
<!-- Generator: Adobe Illustrator 26.0.1, SVG Export Plug-In . SVG Version: 6.00 Build 0)  -->
<svg version="1.1" id="layer" xmlns="http://www.w3.org/2000/svg" xmlns:xlink="http://www.w3.org/1999/xlink" x="0px" y="0px"
	 viewBox="0 0 171.09 177.11" style="enable-background:new 0 0 171.09 177.11;" xml:space="preserve">
<style type="text/css">
	.st0{opacity:0.2;fill:#010202;}
	.st1{fill:#AF8F3A;}
	.st2{fill:#231F20;}
</style>
<g>
	<polygon class="st0" points="171.09,172.59 0,177.11 2.88,0 171.09,0 	"/>
	<polygon class="st1" points="171.09,172.59 2.88,170.95 2.88,0 171.09,0 	"/>
	<g>
		<g>
			<path class="st2" d="M70.63,34.3H37.11v33.52h33.52V34.3z M63.02,60.21h-18.3v-18.3h18.3V60.21z"/>
			<path class="st2" d="M105.61,136.33h33.52V102.8h-33.52V136.33z M113.22,110.41h18.3v18.3h-18.3V110.41z"/>
			<path class="st2" d="M139.13,34.3h-33.52v33.52h33.52L139.13,34.3z M131.52,60.21h-18.3v-18.3h18.3V60.21z"/>
			<path class="st2" d="M37.11,136.33h33.52V102.8H37.11V136.33z M44.72,110.41h18.3v18.3h-18.3V110.41z"/>
			<polygon class="st2" points="91.89,43.25 91.89,50.86 84.28,50.86 84.28,58.47 76.67,58.47 76.67,73.68 84.28,73.68 84.28,80.91 
				76.81,80.91 76.77,80.96 76.77,80.93 61.56,80.93 61.56,73.32 53.95,73.32 53.95,80.93 46.34,80.93 46.34,88.54 38.73,88.54 
				38.73,96.15 46.34,96.15 61.56,96.15 76.77,96.15 76.77,88.52 84.42,88.52 84.42,81.29 91.89,81.29 91.89,73.68 91.89,58.47 
				99.5,58.47 99.5,50.86 99.5,43.25 			"/>
			<polygon class="st2" points="107.11,81.29 91.89,81.29 91.89,96.15 76.77,96.15 76.77,111.37 84.25,111.37 84.25,126.45 
				91.86,126.45 91.86,134.06 99.47,134.06 99.47,126.45 99.47,111.23 91.99,111.23 91.99,104.12 99.5,104.12 99.5,96.51 
				107.11,96.51 			"/>
			<polygon class="st2" points="129.94,96.51 129.94,88.9 137.55,88.9 137.55,81.29 129.94,81.29 114.72,81.29 114.72,96.51 			"/>
			<rect x="76.64" y="126.45" class="st2" width="7.61" height="7.61"/>
			<rect x="76.67" y="43.25" class="st2" width="7.61" height="7.61"/>
			<rect x="107.11" y="73.68" class="st2" width="7.61" height="7.61"/>
		</g>
		<polygon class="st2" points="13.82,69.38 21.59,69.38 21.59,18.34 73.29,18.34 73.29,10.58 13.82,10.58 		"/>
		<polygon class="st2" points="103.31,10.24 103.31,18.01 154.35,18.01 154.35,69.71 162.11,69.71 162.11,10.24 		"/>
		<polygon class="st2" points="162.11,101.07 154.35,101.07 154.35,152.11 102.64,152.11 102.64,159.87 162.11,159.87 		"/>
		<polygon class="st2" points="72.63,160.2 72.63,152.44 21.59,152.44 21.59,100.73 13.82,100.73 13.82,160.2 		"/>
	</g>
</g>
</svg>
